<?xml version="1.0" encoding="UTF-8"?>
<svg width="52" height="24" version="1.1" viewBox="0 0 52 24" xmlns="http://www.w3.org/2000/svg">
 <path d="m12 4a8 8 0 1 0 4.21 14.804 1.0001 1.0001 0 0 1 1.054 1.7 9.96 9.96 0 0 1-5.264 1.496c-5.523 0-10-4.477-10-10s4.477-10 10-10 10 4.477 10 10c0 1.104-0.27 2.31-0.949 3.243-0.716 0.984-1.849 1.6-3.331 1.465a4.2 4.2 0 0 1-2.93-1.585c-0.94 1.21-2.388 1.94-3.985 1.715-2.53-0.356-4.04-2.91-3.682-5.458s2.514-4.586 5.044-4.23c0.905 0.127 1.68 0.536 2.286 1.126a1 1 0 0 1 1.964 0.368l-0.515 3.545v2e-3a2.22 2.22 0 0 0 1.999 2.526c0.75 0.068 1.212-0.21 1.533-0.65 0.358-0.493 0.566-1.245 0.566-2.067a8 8 0 0 0-8-8zm-0.112 5.13c-1.195-0.168-2.544 0.819-2.784 2.529s0.784 3.03 1.98 3.198 2.543-0.819 2.784-2.529-0.784-3.03-1.98-3.198z" clip-rule="evenodd" fill-rule="evenodd"/>
 <rect x="25.65" y="2.1092" width="2.0321" height="20.585" ry="1.08" stroke-width=".30971"/>
 <rect transform="matrix(.99888 -.047253 .037347 .9993 0 0)" x="43.87" y="4.9905" width="2.035" height="19.82" ry="1.0399" stroke-width=".30412"/>
 <g transform="translate(-1.9375 .69102)" stroke-width=".30292">
  <rect transform="matrix(.95559 -.2947 .28585 .95827 0 0)" x="29.459" y="11.946" width="2.035" height="19.664" ry="1.0317"/>
  <rect transform="matrix(.96047 .27839 -.28726 .95785 0 0)" x="44.5" y="-10.624" width="2.035" height="19.664" ry="1.0317"/>
 </g>
 <rect transform="matrix(.0034511 .99999 -.99968 .025328 0 0)" x="16.444" y="-44.46" width="1.0425" height="2.3104" ry=".12121" stroke-width=".074318"/>
</svg>
